<?xml version="1.0" standalone="no"?>
<!DOCTYPE svg PUBLIC "-//W3C//DTD SVG 1.1//EN" "http://www.w3.org/Graphics/SVG/1.1/DTD/svg11.dtd" >
<!--
2023-10-19: Created with FontForge (http://fontforge.org)
-->
<svg xmlns="http://www.w3.org/2000/svg" xmlns:xlink="http://www.w3.org/1999/xlink" version="1.1">
<metadata>
Created by FontForge 20230101 at Thu Oct 19 22:07:01 2023
 By Agnieszka Lepka
Copyright (c) 2023, Agnieszka Lepka
</metadata>
<defs>
<font id="Untitled1" horiz-adv-x="750" >
  <font-face 
    font-family="Untitled1"
    font-weight="400"
    font-stretch="normal"
    units-per-em="1000"
    panose-1="2 0 5 3 0 0 0 0 0 0"
    ascent="800"
    descent="-200"
    x-height="550"
    cap-height="700"
    bbox="0 -211 1353 890"
    underline-thickness="50"
    underline-position="-100"
    unicode-range="U+0020-017C"
  />
    <missing-glyph />
    <glyph glyph-name="A" unicode="A" horiz-adv-x="818" 
d="M798 0h-110l-97 220h-370l-96 -220h-105l304 700h167zM390 610l-130 -300h292l-132 300h-30z" />
    <glyph glyph-name="Q" unicode="Q" horiz-adv-x="800" 
d="M760 350c0 -189 -137 -344 -330 -359c21 -60 73 -91 138 -91v-100c-132 0 -218 79 -238 196c-172 32 -290 178 -290 354c0 199 151 360 360 360s360 -161 360 -360zM400 85c151 0 255 114 255 265s-104 265 -255 265s-255 -114 -255 -265s104 -265 255 -265z" />
    <glyph glyph-name="a" unicode="a" horiz-adv-x="695" 
d="M620 550h10c20 -92 37 -174 37 -284c0 -211 -60 -276 -133 -276c-49 0 -92 29 -92 100v196h-50c0 -145 -48 -296 -205 -296c-86 0 -147 51 -147 127c0 113 123 158 262 173c-141 7 -220 37 -220 119c0 93 85 151 221 151c146 0 239 -71 239 -230v-210
c0 -33 14 -45 33 -45c28 0 82 25 82 202c0 95 -16 181 -37 273zM382 296h60v24c0 75 -30 155 -172 155c-84 0 -143 -29 -143 -85c0 -69 75 -94 255 -94zM222 75c108 0 160 84 160 211c-169 0 -247 -50 -247 -131c0 -54 35 -80 87 -80z" />
    <glyph glyph-name="b" unicode="b" horiz-adv-x="719" 
d="M404 560c159 0 270 -131 270 -285s-111 -285 -270 -285c-140 0 -214 101 -234 230v-220h-100v740h100v-410c20 129 94 230 234 230zM369 80c124 0 200 85 200 195s-76 195 -200 195s-199 -85 -199 -195s75 -195 199 -195z" />
    <glyph glyph-name="B" unicode="B" horiz-adv-x="760" 
d="M596 383c70 -27 124 -86 124 -185c0 -139 -121 -198 -240 -198h-410v700h370c119 0 230 -56 230 -180c0 -61 -29 -107 -74 -137zM410 610h-240v-200h240c81 0 155 24 155 100c0 81 -74 100 -155 100zM170 90h280c81 0 165 22 165 118c0 98 -84 117 -165 117h-280v-235z
" />
    <glyph glyph-name="C" unicode="C" horiz-adv-x="639" 
d="M404 615c-155 0 -259 -114 -259 -265s104 -265 259 -265c80 0 150 28 205 73v-118c-53 -30 -118 -50 -199 -50c-229 0 -370 161 -370 360s141 360 370 360c81 0 146 -20 199 -50v-118c-55 45 -125 73 -205 73z" />
    <glyph glyph-name="D" unicode="D" horiz-adv-x="760" 
d="M70 700h290c209 0 360 -151 360 -350s-151 -350 -360 -350h-290v700zM170 90h170c171 0 275 114 275 260s-104 260 -275 260h-170v-520z" />
    <glyph glyph-name="E" unicode="E" horiz-adv-x="700" 
d="M170 325v-235h500v-90h-600v700h580v-90h-480v-195h450v-90h-450z" />
    <glyph glyph-name="F" unicode="F" horiz-adv-x="640" 
d="M630 700v-90h-460v-265h450v-90h-450v-255h-100v700h560z" />
    <glyph glyph-name="G" unicode="G" horiz-adv-x="822" 
d="M382 280v90h370v-370h-100v248c-15 -152 -101 -258 -268 -258c-187 0 -344 161 -344 360s151 360 360 360c125 0 213 -49 277 -126l-75 -65c-45 59 -116 96 -202 96c-151 0 -255 -114 -255 -265s110 -265 251 -265c157 0 253 70 253 195h-267z" />
    <glyph glyph-name="H" unicode="H" horiz-adv-x="790" 
d="M620 415v285h100v-700h-100v325h-450v-325h-100v700h100v-285h450z" />
    <glyph glyph-name="I" unicode="I" horiz-adv-x="590" 
d="M570 700v-90h-225v-520h225v-90h-550v90h225v520h-225v90h550z" />
    <glyph glyph-name="J" unicode="J" horiz-adv-x="671" 
d="M601 700v-441c0 -159 -105 -269 -280 -269s-280 110 -280 279h100c0 -122 74 -184 180 -184s180 62 180 194v331h-435v90h535z" />
    <glyph glyph-name="K" unicode="K" horiz-adv-x="690" 
d="M680 710v-100l-510 -220v-75l510 -220v-105l-510 220v-210h-100v700h100v-210z" />
    <glyph glyph-name="L" unicode="L" horiz-adv-x="610" 
d="M170 700v-610h430v-90h-530v700h100z" />
    <glyph glyph-name="M" unicode="M" horiz-adv-x="1010" 
d="M529 90l199 610h212v-700h-100v610h-38l-199 -610h-186l-207 610h-40v-610h-100v700h212l207 -610h40z" />
    <glyph glyph-name="N" unicode="N" horiz-adv-x="790" 
d="M620 90v610h100v-700h-201l-309 610h-40v-610h-100v700h201l309 -610h40z" />
    <glyph glyph-name="O" unicode="O" horiz-adv-x="800" 
d="M400 -10c-209 0 -360 161 -360 360s151 360 360 360s360 -161 360 -360s-151 -360 -360 -360zM400 85c151 0 255 114 255 265s-104 265 -255 265s-255 -114 -255 -265s104 -265 255 -265z" />
    <glyph glyph-name="P" unicode="P" horiz-adv-x="780" 
d="M460 140c-172 0 -290 131 -290 285s118 285 290 285s295 -131 295 -285s-123 -285 -295 -285zM170 700v-700h-100v700h100zM460 233c109 0 190 82 190 192s-81 192 -190 192s-190 -82 -190 -192s81 -192 190 -192z" />
    <glyph glyph-name="R" unicode="R" horiz-adv-x="780" 
d="M495 310h-325l510 -210v-110l-510 210v-200h-100v700h425c119 0 235 -56 235 -195s-116 -195 -235 -195zM480 610h-310v-210h310c81 0 145 29 145 105s-64 105 -145 105z" />
    <glyph glyph-name="S" unicode="S" horiz-adv-x="680" 
d="M303 409l97 -6c169 -10 245 -84 245 -197c0 -145 -128 -216 -299 -216c-211 0 -307 101 -311 230h100c3 -77 73 -140 206 -140c130 0 199 41 199 119c0 50 -22 102 -152 110l-101 6c-146 9 -226 85 -226 187c0 116 87 208 290 208c199 0 270 -101 274 -230h-100
c-3 77 -58 140 -182 140c-129 0 -177 -49 -177 -112c0 -47 33 -93 137 -99z" />
    <glyph glyph-name="T" unicode="T" horiz-adv-x="660" 
d="M650 700v-90h-270v-610h-100v610h-270v90h640z" />
    <glyph glyph-name="U" unicode="U" horiz-adv-x="770" 
d="M600 325v375h100v-395c0 -209 -136 -315 -315 -315s-315 106 -315 315v395h100v-375c0 -171 84 -240 215 -240s215 69 215 240z" />
    <glyph glyph-name="V" unicode="V" horiz-adv-x="773" 
d="M409 90l239 610h105l-279 -700h-167l-287 700h110l249 -610h30z" />
    <glyph glyph-name="W" unicode="W" horiz-adv-x="1062" 
d="M781 90l151 610h110l-186 -700h-177l-133 580h-30l-133 -580h-177l-186 700h110l151 -610h30l133 580h174l133 -580h30z" />
    <glyph glyph-name="X" unicode="X" 
d="M728 700l-251 -337l263 -363h-125l-225 315h-30l-225 -315h-125l263 363l-251 337h120l218 -295h30l218 295h120z" />
    <glyph glyph-name="Y" unicode="Y" horiz-adv-x="714" 
d="M599 700h115l-298 -415v-285h-100v287l-316 413h120l233 -307h30z" />
    <glyph glyph-name="Z" unicode="Z" horiz-adv-x="640" 
d="M120 90h510v-90h-610v157l500 423v30h-490v90h590v-157l-500 -423v-30z" />
    <glyph glyph-name="bracketleft" unicode="[" horiz-adv-x="305" 
d="M295 800v-90h-125v-720h125v-90h-225v900h225z" />
    <glyph glyph-name="backslash" unicode="\" horiz-adv-x="440" 
d="M20 800h100l300 -1000h-100z" />
    <glyph glyph-name="bracketright" unicode="]" horiz-adv-x="305" 
d="M235 800v-900h-225v90h125v720h-125v90h225z" />
    <glyph glyph-name="asciicircum" unicode="^" horiz-adv-x="530" 
d="M120 384h-100l200 360h90l200 -360h-100l-145 265z" />
    <glyph glyph-name="underscore" unicode="_" horiz-adv-x="450" 
d="M450 -90h-450v90h450v-90z" />
    <glyph glyph-name="grave" unicode="`" horiz-adv-x="230" 
d="M0 740h170l60 -148h-10z" />
    <glyph glyph-name="c" unicode="c" horiz-adv-x="665" 
d="M610 235h10c-10 -113 -109 -245 -278 -245s-297 131 -297 285s128 285 297 285c174 0 273 -121 278 -230h-100c-5 68 -61 140 -180 140c-114 0 -190 -82 -190 -195c0 -110 85 -195 215 -195c135 0 225 66 245 155z" />
    <glyph glyph-name="d" unicode="d" horiz-adv-x="719" 
d="M549 330v410h100v-740h-100v220c-20 -129 -94 -230 -234 -230c-159 0 -270 131 -270 285s111 285 270 285c140 0 214 -101 234 -230zM350 80c124 0 199 85 199 195s-75 195 -199 195s-200 -85 -200 -195s76 -195 200 -195z" />
    <glyph glyph-name="e" unicode="e" horiz-adv-x="670" 
d="M342 560c194 0 283 -131 283 -285c0 -153 -89 -285 -273 -285c-179 0 -307 131 -307 285s123 285 297 285zM340 476c-95 0 -159 -51 -183 -126h360c-19 75 -71 126 -177 126zM375 80c150 0 235 76 240 195h-470c0 -110 85 -195 230 -195z" />
    <glyph glyph-name="f" unicode="f" horiz-adv-x="460" 
d="M75 625c0 -34 56 -75 365 -75v-90h-345c160 -22 264 -116 264 -235c0 -110 -83 -225 -267 -225v90c117 0 167 77 167 158c0 103 -50 212 -239 212v90h234c-155 11 -214 39 -214 96c0 69 87 114 184 114c92 0 206 -41 206 -160h-100c0 57 -63 80 -126 80
c-47 0 -129 -13 -129 -55z" />
    <glyph glyph-name="g" unicode="g" horiz-adv-x="665" 
d="M496 155c111 0 169 -54 169 -139c0 -143 -146 -226 -330 -226c-153 0 -270 48 -270 153c0 38 15 74 49 110c-28 17 -44 45 -44 83c0 48 21 84 54 119c-33 30 -54 71 -54 120c0 119 121 185 250 185c81 0 159 -26 206 -75c40 28 66 59 66 96c0 58 -56 69 -117 69v90
c104 0 155 -36 155 -110c0 -65 -41 -114 -97 -153c23 -28 37 -62 37 -102c0 -119 -121 -185 -250 -185c-71 0 -140 20 -187 58c-24 -28 -38 -57 -38 -90c0 -48 31 -73 70 -73c111 0 198 70 331 70zM320 477c-89 0 -153 -37 -153 -102c0 -25 10 -46 27 -63
c38 26 81 48 124 68c42 20 87 39 127 59c-27 25 -71 38 -125 38zM473 375c0 22 -7 41 -20 56c-44 -22 -91 -41 -132 -60c-44 -20 -85 -42 -119 -65c27 -22 69 -33 118 -33c89 0 153 37 153 102zM303 -150c150 0 262 64 262 140c0 49 -31 80 -96 80c-109 0 -179 -35 -278 -35
c-26 0 -49 4 -68 13c-20 -25 -33 -55 -33 -85c0 -90 101 -113 213 -113z" />
    <glyph glyph-name="h" unicode="h" horiz-adv-x="680" 
d="M395 560c140 0 215 -91 215 -240v-320h-100v300c0 117 -60 175 -160 175s-180 -58 -180 -175v-300h-100v740h100v-378c20 118 97 198 225 198z" />
    <glyph glyph-name="i" unicode="i" horiz-adv-x="240" 
d="M121 610c-42 0 -76 34 -76 76c0 40 34 74 76 74c40 0 74 -34 74 -74c0 -42 -34 -76 -74 -76zM70 550h100v-550h-100v550z" />
    <glyph glyph-name="j" unicode="j" horiz-adv-x="240" 
d="M121 620c-42 0 -76 34 -76 76c0 40 34 74 76 74c40 0 74 -34 74 -74c0 -42 -34 -76 -74 -76zM70 550h100v-730h-100v730z" />
    <glyph glyph-name="k" unicode="k" horiz-adv-x="620" 
d="M600 220h10c0 -152 -66 -230 -178 -230c-105 0 -162 68 -162 158c0 100 71 182 210 208c-1 62 -41 119 -140 119c-100 0 -170 -58 -170 -175v-300h-100v740h100v-374c18 115 88 194 215 194c140 0 195 -91 195 -195v-5c-203 0 -246 -104 -246 -170
c0 -70 49 -110 117 -110c65 0 149 38 149 140z" />
    <glyph glyph-name="l" unicode="l" horiz-adv-x="240" 
d="M70 740h100v-740h-100v740z" />
    <glyph glyph-name="m" unicode="m" horiz-adv-x="920" 
d="M685 560c110 0 165 -81 165 -200v-360h-100v340c0 87 -41 135 -113 135s-127 -48 -127 -135v-340h-100v340c0 87 -41 135 -113 135s-127 -48 -127 -135v-340h-100v550h100v-152c17 93 75 162 175 162s155 -67 164 -170c15 97 73 170 176 170z" />
    <glyph glyph-name="n" unicode="n" horiz-adv-x="680" 
d="M395 560c140 0 215 -91 215 -240v-320h-100v300c0 117 -60 175 -160 175s-180 -58 -180 -175v-300h-100v550h100v-188c20 118 97 198 225 198z" />
    <glyph glyph-name="o" unicode="o" horiz-adv-x="680" 
d="M340 -10c-172 0 -295 131 -295 285s123 285 295 285s295 -131 295 -285s-123 -285 -295 -285zM340 83c109 0 190 82 190 192s-81 192 -190 192s-190 -82 -190 -192s81 -192 190 -192z" />
    <glyph glyph-name="p" unicode="p" horiz-adv-x="719" 
d="M404 560c159 0 270 -131 270 -285s-111 -285 -270 -285c-140 0 -214 101 -234 230v-400h-100v730h100v-220c20 129 94 230 234 230zM369 80c124 0 200 85 200 195s-76 195 -200 195s-199 -85 -199 -195s75 -195 199 -195z" />
    <glyph glyph-name="q" unicode="q" horiz-adv-x="719" 
d="M549 330v220h100v-730h-100v400c-20 -129 -94 -230 -234 -230c-159 0 -270 131 -270 285s111 285 270 285c140 0 214 -101 234 -230zM350 80c124 0 199 85 199 195s-75 195 -199 195s-200 -85 -200 -195s76 -195 200 -195z" />
    <glyph glyph-name="s" unicode="s" horiz-adv-x="610" 
d="M313 329c188 -20 257 -60 257 -161c0 -104 -102 -178 -275 -178c-160 0 -250 78 -250 174c0 49 21 92 65 125c-31 22 -50 54 -50 102c0 87 91 169 256 169c174 0 230 -91 234 -190c-131 0 -232 -11 -307 -32c20 -3 43 -6 70 -9zM160 398c0 -29 20 -45 61 -55
c60 18 136 30 228 35c-5 45 -38 97 -148 97c-88 0 -141 -34 -141 -77zM264 55c147 0 206 50 206 95c0 53 -39 72 -180 89c-62 8 -124 17 -168 42c-32 -27 -47 -60 -47 -96c0 -86 93 -130 189 -130z" />
    <glyph glyph-name="t" unicode="t" horiz-adv-x="510" 
d="M300 740v-190h190v-90c-293 0 -380 -112 -380 -226c0 -96 76 -149 165 -149c95 0 205 63 205 215h10c0 -212 -80 -310 -226 -310c-151 0 -224 109 -224 215c0 144 117 234 339 255h-369v90h190v190h100z" />
    <glyph glyph-name="u" unicode="u" horiz-adv-x="670" 
d="M500 250v300h100v-550h-100v187c-20 -117 -96 -197 -220 -197c-135 0 -210 91 -210 240v320h100v-300c0 -117 60 -175 155 -175s175 58 175 175z" />
    <glyph glyph-name="v" unicode="v" horiz-adv-x="620" 
d="M329 90l174 460h105l-212 -550h-166l-218 550h108l179 -460h30z" />
    <glyph glyph-name="w" unicode="w" horiz-adv-x="910" 
d="M660 90l133 460h105l-164 -550h-169l-97 430h-25l-98 -430h-169l-164 550h105l133 -460h25l96 430h169l95 -430h25z" />
    <glyph glyph-name="x" unicode="x" horiz-adv-x="590" 
d="M575 550l-182 -269l184 -281h-114l-150 235h-30l-156 -235h-114l190 281l-188 269h115l153 -225h30l147 225h115z" />
    <glyph glyph-name="y" unicode="y" horiz-adv-x="620" 
d="M334 150l169 400h105l-198 -470c-68 -160 -146 -270 -339 -270v90c116 0 182 60 226 160h-63l-222 490h108l179 -400h35z" />
    <glyph glyph-name="z" unicode="z" horiz-adv-x="570" 
d="M130 120v-30h400v-90h-500v155l390 275v30h-380v90h480v-155z" />
    <glyph glyph-name="braceleft" unicode="{" horiz-adv-x="305" 
d="M115 358v-16c62 -22 86 -59 86 -118v-126c0 -88 33 -108 74 -108v-90c-64 0 -174 30 -174 182v142c0 62 -31 81 -71 81v90c40 0 71 19 71 81v142c0 152 110 182 174 182v-90c-41 0 -74 -20 -74 -108v-126c0 -59 -24 -96 -86 -118z" />
    <glyph glyph-name="bar" unicode="|" horiz-adv-x="300" 
d="M100 -200v1000h100v-1000h-100z" />
    <glyph glyph-name="braceright" unicode="}" horiz-adv-x="305" 
d="M190 342v16c-62 22 -86 59 -86 118v126c0 88 -33 108 -74 108v90c64 0 174 -30 174 -182v-142c0 -62 31 -81 71 -81v-90c-40 0 -71 -19 -71 -81v-142c0 -152 -110 -182 -174 -182v90c41 0 74 20 74 108v126c0 59 24 96 86 118z" />
    <glyph glyph-name="asciitilde" unicode="~" horiz-adv-x="742" 
d="M626 420h90c10 -90 -37 -160 -128 -160c-152 0 -279 85 -405 85c-55 0 -72 -32 -67 -75h-90c-10 90 47 160 148 160c152 0 284 -85 410 -85c50 0 57 32 42 75z" />
    <glyph glyph-name="r" unicode="r" horiz-adv-x="525" 
d="M170 0h-100v544l414 -1l1 -88c-70 3 -195.66 18.3037 -313 54zM506 591z" />
    <glyph glyph-name="at" unicode="@" horiz-adv-x="857" 
d="M636 55c-51 0 -97 29 -97 108v77h-42c0 -121 -48 -185 -162 -185c-80 0 -131 42 -131 106c0 94 97 132 215 144c-115 6 -180 31 -180 99c0 70 71 126 184 126c122 0 199 -59 199 -192v-160c0 -37 19 -52 48 -52c33 0 137 21 137 198c0 158 -107 346 -364 346
c-251 0 -393 -190 -393 -382c0 -229 195 -378 389 -378c67 0 153 10 230 40v-10c-77 -30 -163 -40 -230 -40c-199 0 -399 154 -399 388c0 197 147 392 403 392c262 0 374 -193 374 -365c0 -196 -100 -260 -181 -260zM489 310h50v20c0 63 -25 129 -143 129
c-70 0 -119 -24 -119 -69c0 -59 62 -80 212 -80zM364 84c65 0 125 42 125 156c-141 0 -206 -30 -206 -87c0 -39 25 -69 81 -69z" />
    <glyph glyph-name="dollar" unicode="$" 
d="M499 590l-60 -187c166 -11 241 -85 241 -197c0 -145 -128 -216 -299 -216c-21 0 -41 1 -60 3v-93h-95v114c-104 37 -153 114 -156 206h100c2 -45 26 -85 73 -111l67 207c-138 12 -214 87 -214 186c0 116 87 208 290 208c15 0 30 -1 44 -2v92h95v-112
c95 -37 132 -115 135 -208h-100c-2 45 -21 84 -61 110zM338 409h3l68 210c-10 1 -20 1 -31 1c-129 0 -177 -49 -177 -112c0 -47 33 -93 137 -99zM376 80c130 0 199 41 199 119c0 50 -22 102 -152 110l-15 1l-73 -228c13 -1 26 -2 41 -2z" />
    <glyph glyph-name="percent" unicode="%" horiz-adv-x="1071" 
d="M243 304c-111 0 -198 90 -198 203c0 112 87 203 198 203s198 -91 198 -203c0 -113 -87 -203 -198 -203zM227 0l500 700h110l-500 -700h-110zM243 395c57 0 107 44 107 112s-50 112 -107 112s-107 -44 -107 -112s50 -112 107 -112zM828 0c-111 0 -198 90 -198 203
c0 112 87 203 198 203s198 -91 198 -203c0 -113 -87 -203 -198 -203zM828 91c57 0 107 44 107 112s-50 112 -107 112s-107 -44 -107 -112s50 -112 107 -112z" />
    <glyph glyph-name="ampersand" unicode="&#x26;" horiz-adv-x="980" 
d="M770 700v-150h190v-90c-293 0 -380 -112 -380 -226c0 -96 76 -149 165 -149c95 0 205 63 205 215h10c0 -212 -80 -310 -226 -310c-151 0 -224 109 -224 215c0 144 117 234 339 255h-369c-131 0 -221 -20 -280 -54c79 -76 250 -88 250 -226c0 -90 -50 -190 -206 -190
c-141 0 -214 109 -214 215c0 90 46 161 136 206c-28 27 -46 61 -46 108c0 103 85 191 221 191c111 0 193 -57 222 -160h107v150h100zM186 421c73 32 172 49 294 49c-3 65 -37 155 -172 155c-90 0 -148 -55 -148 -126c0 -32 10 -57 26 -78zM440 180c0 129 -163 145 -256 216
c-62 -41 -85 -99 -85 -162c0 -96 77 -159 186 -159c95 0 155 38 155 105z" />
    <glyph glyph-name="zero" unicode="0" 
d="M375 -10c-179 0 -280 161 -280 360s101 360 280 360s280 -161 280 -360s-101 -360 -280 -360zM375 85c121 0 175 114 175 265s-54 265 -175 265s-175 -114 -175 -265s54 -265 175 -265z" />
    <glyph glyph-name="one" unicode="1" 
d="M565 90v90h100v-180h-550v90h215v500l-215 -140v110l215 140h100v-610h135z" />
    <glyph glyph-name="two" unicode="2" 
d="M560 90v90h100v-180h-570v97c0 158 102 218 209 257c-83 20 -174 74 -174 166c0 109 102 190 264 190c173 0 261 -92 261 -198c0 -270 -460 -153 -460 -392v-30h370zM210 490c0 -63 42 -113 102 -131c115 40 233 58 233 149c0 63 -59 112 -158 112
c-120 0 -177 -53 -177 -130z" />
    <glyph glyph-name="three" unicode="3" 
d="M630 515l-193 -93c128 -31 223 -97 223 -221c0 -120 -112 -211 -285 -211c-176 0 -275 91 -275 195c0 99 109 153 191 177c-16 3 -33 6 -51 8v50l290 140v50h-310v-90h-100v180h510v-185zM373 80c99 0 182 44 182 117c0 76 -59 129 -250 163c-67 -22 -110 -75 -110 -145
c0 -72 54 -135 178 -135z" />
    <glyph glyph-name="four" unicode="4" 
d="M570 240h100v-90h-100v-150h-100v150h-395v140l395 410h100v-460zM175 270v-30h295v330z" />
    <glyph glyph-name="five" unicode="5" 
d="M251 610l-17 -132c318 -29 431 -121 431 -262c0 -125 -107 -226 -295 -226c-186 0 -280 101 -280 205c0 99 105 158 213 183c-50 8 -109 15 -179 20l31 302h480v-180h-100v90h-284zM368 80c114 0 192 54 192 127c0 67 -39 131 -242 168c-94 -23 -133 -81 -133 -150
c0 -72 49 -145 183 -145z" />
    <glyph glyph-name="six" unicode="6" 
d="M442 434c113 0 218 -69 218 -204s-108 -240 -278 -240c-169 0 -292 131 -292 341c0 248 143 379 312 379c159 0 228 -132 238 -245h-10c-20 89 -90 160 -215 160c-140 0 -220 -90 -220 -289c0 -22 1 -42 4 -61c33 81 115 159 243 159zM386 80c104 0 174 56 174 150
c0 97 -85 145 -158 145c-90 0 -149 -37 -202 -113c20 -123 90 -182 186 -182z" />
    <glyph glyph-name="seven" unicode="7" 
d="M70 700h570v-157l-250 -373v-170h-100v187l250 373v50h-370v-90h-100v180z" />
    <glyph glyph-name="eight" unicode="8" 
d="M444 397c108 -25 216 -65 216 -201c0 -135 -128 -206 -294 -206c-186 0 -276 91 -276 180c0 110 101 161 189 172c-88 28 -163 72 -163 180c0 96 87 188 270 188c179 0 254 -91 254 -170c0 -104 -109 -137 -196 -143zM221 518c0 -78 99 -93 203 -116c54 4 116 33 116 98
c0 67 -58 120 -162 120c-109 0 -157 -49 -157 -102zM366 80c120 0 189 41 189 109c0 103 -138 113 -259 148c-59 -12 -106 -67 -106 -127c0 -77 73 -130 176 -130z" />
    <glyph glyph-name="nine" unicode="9" 
d="M368 710c169 0 292 -131 292 -341c0 -248 -143 -379 -312 -379c-159 0 -228 132 -238 245h10c20 -89 90 -160 215 -160c140 0 220 90 220 289c0 22 -1 42 -4 61c-33 -81 -115 -159 -243 -159c-113 0 -218 69 -218 204s108 240 278 240zM348 325c90 0 149 37 202 113
c-20 123 -90 182 -186 182c-104 0 -174 -56 -174 -150c0 -97 85 -145 158 -145z" />
    <glyph glyph-name="colon" unicode=":" horiz-adv-x="240" 
d="M121 410c-42 0 -76 34 -76 76c0 40 34 74 76 74c40 0 74 -34 74 -74c0 -42 -34 -76 -74 -76zM121 -10c-42 0 -76 34 -76 76c0 40 34 74 76 74c40 0 74 -34 74 -74c0 -42 -34 -76 -74 -76z" />
    <glyph glyph-name="semicolon" unicode=";" horiz-adv-x="240" 
d="M121 410c-42 0 -76 34 -76 76c0 40 34 74 76 74c40 0 74 -34 74 -74c0 -42 -34 -76 -74 -76zM51 15v115c101 0 154 -59 154 -140c0 -110 -116 -141 -180 -141v5c63 0 111 35 111 89c0 49 -36 72 -85 72z" />
    <glyph glyph-name="less" unicode="&#x3c;" 
d="M25 395l700 300v-100l-585 -245l585 -245v-100l-700 300v90z" />
    <glyph glyph-name="equal" unicode="=" 
d="M25 525h700v-90h-700v90zM25 265h700v-90h-700v90z" />
    <glyph glyph-name="greater" unicode="&#x3e;" 
d="M25 595v100l700 -300v-90l-700 -300v100l585 245z" />
    <glyph glyph-name="question" unicode="?" horiz-adv-x="570" 
d="M293 405c-40 -6 -72 -10 -96 -16c70 -24 175 -34 323 -34c-4 -89 -80 -166 -248 -166c-141 0 -232 56 -232 143c0 47 21 78 55 100c-35 32 -50 72 -50 119c0 91 100 159 250 159c129 0 230 -48 230 -143c0 -92 -64 -139 -232 -162zM75 530c0 -34 11 -64 35 -90
c43 23 101 33 160 41c123 17 165 41 165 88c0 46 -54 86 -161 86c-106 0 -199 -44 -199 -125zM434 346c-111 4 -194 16 -255 38c-35 -11 -49 -27 -49 -57c0 -38 48 -63 151 -63c108 0 146 43 153 82zM283 140c40 0 74 -34 74 -74c0 -42 -34 -76 -74 -76c-42 0 -76 34 -76 76
c0 40 34 74 76 74z" />
    <glyph glyph-name="quotesingle" unicode="'" horiz-adv-x="240" 
d="M70 740h100l-10 -270h-80z" />
    <glyph glyph-name="parenleft" unicode="(" horiz-adv-x="310" 
d="M200 800h100c-70 -130 -125 -270 -125 -450s55 -320 125 -450h-100c-75 130 -130 270 -130 450s55 320 130 450z" />
    <glyph glyph-name="parenright" unicode=")" horiz-adv-x="310" 
d="M10 800h100c75 -130 130 -270 130 -450s-55 -320 -130 -450h-100c70 130 125 270 125 450s-55 320 -125 450z" />
    <glyph glyph-name="asterisk" unicode="*" horiz-adv-x="456" 
d="M400 604l26 -78l-188 -28l138 -126l-67 -49l-81 168l-81 -168l-67 49l138 126l-188 28l26 78l166 -95l-35 191h82l-35 -191z" />
    <glyph glyph-name="plus" unicode="+" 
d="M420 395h305v-90h-305v-305h-90v305h-305v90h305v305h90v-305z" />
    <glyph glyph-name="comma" unicode="," horiz-adv-x="235" 
d="M36 15v115c101 0 154 -59 154 -140c0 -110 -116 -141 -180 -141v5c63 0 111 35 111 89c0 49 -36 72 -85 72z" />
    <glyph glyph-name="hyphen" unicode="-" horiz-adv-x="450" 
d="M400 245h-350v90h350v-90z" />
    <glyph glyph-name="period" unicode="." horiz-adv-x="240" 
d="M121 -10c-42 0 -76 34 -76 76c0 40 34 74 76 74c40 0 74 -34 74 -74c0 -42 -34 -76 -74 -76z" />
    <glyph glyph-name="slash" unicode="/" horiz-adv-x="440" 
d="M20 -200l300 1000h100l-300 -1000h-100z" />
    <glyph glyph-name="onequarter" unicode="&#xbc;" horiz-adv-x="1369" 
d="M470 0l500 720h95l-500 -720h-95zM539 318v-138h-424v69h166v385l-166 -108v85l166 107h77v-469h104v69h77zM1212 185h77v-70h-77v-115h-76v115h-304v108l304 315h76v-353zM909 208v-23h227v253z" />
    <glyph glyph-name="onehalf" unicode="&#xbd;" horiz-adv-x="1443" 
d="M470 0l500 720h95l-500 -720h-95zM539 318v-138h-424v69h166v385l-166 -108v85l166 107h77v-469h104v69h77zM1276 69v69h77v-138h-439v75c0 121 78 168 160 197c-63 16 -133 58 -133 128c0 84 79 146 203 146c133 0 201 -71 201 -152c0 -208 -354 -118 -354 -302v-23h285
zM1007 377c0 -49 32 -87 77 -101c89 31 180 45 180 115c0 48 -45 86 -121 86c-93 0 -136 -41 -136 -100z" />
    <glyph glyph-name="threequarters" unicode="&#xbe;" horiz-adv-x="1369" 
d="M470 0l500 720h95l-500 -720h-95zM531 335c0 -93 -86 -163 -220 -163c-135 0 -211 70 -211 150c0 77 85 119 149 137l-41 6v38l223 108v38h-239v-69h-77v138h393v-142l-149 -71c98 -24 172 -75 172 -170zM1212 185h77v-70h-77v-115h-76v115h-304v108l304 315h76v-353z
M310 242c76 0 140 33 140 90c0 58 -45 99 -192 125c-52 -18 -85 -58 -85 -112c0 -55 42 -103 137 -103zM909 208v-23h227v253z" />
    <glyph glyph-name="uni00B9" unicode="&#xb9;" horiz-adv-x="624" 
d="M462 249v69h77v-138h-424v69h166v385l-166 -108v85l166 107h77v-469h104z" />
    <glyph glyph-name="ordmasculine" unicode="&#xba;" horiz-adv-x="543" 
d="M272 272c-133 0 -227 101 -227 220c0 118 94 219 227 219c132 0 226 -101 226 -219c0 -119 -94 -220 -226 -220zM272 344c83 0 146 63 146 148c0 84 -63 147 -146 147c-84 0 -147 -63 -147 -147c0 -85 63 -148 147 -148z" />
    <glyph glyph-name="guillemotright" unicode="&#xbb;" horiz-adv-x="580" 
d="M10 550h110l230 -275l-230 -275h-110l228 275zM230 550h110l230 -275l-230 -275h-110l228 275z" />
    <glyph glyph-name="glyph106" unicode="&#x105;" horiz-adv-x="695" 
d="M514 -8c-29 -17 -45 -37 -45 -57c0 -31 27 -53 108 -53v-93c-109 0 -155 50 -155 105c0 46 32 79 74 103c-31 12 -54 41 -54 93v196h-60c-53 0 -97 -5 -132 -13c66 -26 132 -52 132 -123c0 -80 -47 -160 -180 -160c-108 0 -162 51 -162 127c0 88 74 137 172 161
c-67 26 -130 57 -130 131c0 83 85 151 221 151c146 0 239 -71 239 -230v-210c0 -33 14 -45 33 -45c28 0 82 25 82 202c0 95 -16 181 -37 273h10c20 -92 37 -174 37 -284c0 -211 -60 -276 -133 -276c-7 0 -14 1 -20 2zM382 296h60v24c0 75 -30 155 -172 155
c-90 0 -148 -35 -148 -86c0 -59 50 -85 106 -108c48 11 101 15 154 15zM372 150c0 67 -66 93 -136 119c-68 -21 -101 -58 -101 -108s33 -101 110 -101c70 0 127 33 127 90z" />
    <glyph glyph-name="glyph107" unicode="&#x17c;" horiz-adv-x="570" 
d="M286 610c-42 0 -76 34 -76 76c0 40 34 74 76 74c40 0 74 -34 74 -74c0 -42 -34 -76 -74 -76zM130 120v-30h400v-90h-500v155l390 275v30h-380v90h480v-155z" />
    <glyph glyph-name="glyph108" unicode="&#x119;" horiz-adv-x="672" 
d="M411 -5c-35 -18 -53 -39 -53 -60c0 -31 27 -53 108 -53v-93c-109 0 -155 50 -155 105c0 42 27 74 66 97c-8 -1 -17 -1 -25 -1c-179 0 -307 131 -307 285s119 285 283 285c159 0 257 -111 237 -285h-420c0 -110 85 -195 230 -195c117 0 252 44 252 246
c0 48 -11 135 -42 224h10c32 -96 42 -177 42 -235c0 -214 -106 -301 -226 -320zM326 476c-87 0 -147 -51 -170 -126h308c-11 78 -58 126 -138 126z" />
    <glyph glyph-name="glyph109" unicode="&#x15b;" horiz-adv-x="615" 
d="M261 592l60 148h170l-220 -148h-10zM293 330l73 -5c129 -9 209 -51 209 -164c0 -115 -108 -171 -259 -171c-191 0 -267 91 -271 190h100c3 -47 53 -105 173 -105c103 0 157 31 157 79c0 50 -31 75 -121 81l-77 5c-132 9 -212 47 -212 152c0 86 81 168 256 168
c174 0 230 -91 234 -190h-100c-3 47 -33 105 -149 105c-98 0 -141 -34 -141 -77c0 -50 38 -61 128 -68z" />
    <glyph glyph-name="space" unicode=" " horiz-adv-x="220" 
 />
    <glyph glyph-name="exclam" unicode="!" horiz-adv-x="240" 
d="M70 700h100v-480h-100v480zM121 -10c-42 0 -76 34 -76 76c0 40 34 74 76 74c40 0 74 -34 74 -74c0 -42 -34 -76 -74 -76z" />
    <glyph glyph-name="quotedbl" unicode="&#x22;" horiz-adv-x="400" 
d="M70 740h100l-10 -270h-80zM230 740h100l-10 -270h-80z" />
    <glyph glyph-name="numbersign" unicode="#" horiz-adv-x="763" 
d="M753 570l-20 -90h-130l-44 -210h130l-19 -90h-131l-38 -180h-100l38 180h-200l-38 -180h-100l38 180h-129l19 90h130l44 210h-130l20 90h130l36 170h100l-36 -170h200l36 170h100l-36 -170h130zM259 270h200l44 210h-200z" />
    <glyph glyph-name="glyph105" unicode="&#x141;" horiz-adv-x="650" 
d="M210 277v-187h430v-90h-530v225l-90 -47v95l90 47v380h100v-328l345 181v-95z" />
    <glyph glyph-name="glyph106" unicode="&#x142;" horiz-adv-x="360" 
d="M236 503l119 47v-95l-119 -47v-408h-100v378l-111 -44v95l111 44v267h100v-237z" />
    <glyph glyph-name="Oacute" unicode="&#xd3;" horiz-adv-x="800" 
d="M351 742l60 148h170l-220 -148h-10zM400 -10c-209 0 -360 161 -360 360s151 360 360 360s360 -161 360 -360s-151 -360 -360 -360zM400 85c151 0 255 114 255 265s-104 265 -255 265s-255 -114 -255 -265s104 -265 255 -265z" />
    <glyph glyph-name="oacute" unicode="&#xf3;" horiz-adv-x="680" 
d="M291 592l60 148h170l-220 -148h-10zM340 -10c-172 0 -295 131 -295 285s123 285 295 285s295 -131 295 -285s-123 -285 -295 -285zM340 83c109 0 190 82 190 192s-81 192 -190 192s-190 -82 -190 -192s81 -192 190 -192z" />
    <glyph glyph-name="glyph109" unicode="&#x179;" horiz-adv-x="640" 
d="M271 742l60 148h170l-220 -148h-10zM120 90h510v-90h-610v157l500 423v30h-490v90h590v-157l-500 -423v-30z" />
    <glyph glyph-name="glyph110" unicode="&#x17a;" horiz-adv-x="570" 
d="M236 592l60 148h170l-220 -148h-10zM130 120v-30h400v-90h-500v155l390 275v30h-380v90h480v-155z" />
    <glyph glyph-name="glyph111" unicode="&#x143;" horiz-adv-x="790" 
d="M366 742l60 148h170l-220 -148h-10zM620 90v610h100v-700h-201l-309 610h-40v-610h-100v700h201l309 -610h40z" />
    <glyph glyph-name="glyph112" unicode="&#x144;" horiz-adv-x="680" 
d="M371 740h170l-220 -148h-10zM395 560c140 0 215 -91 215 -240v-320h-100v300c0 117 -60 175 -160 175s-180 -58 -180 -175v-300h-100v550h100v-188c20 118 97 198 225 198z" />
    <glyph glyph-name="glyph113" unicode="&#x15a;" horiz-adv-x="610" 
d="M316 740h170l-220 -148h-10zM313 329c188 -20 257 -60 257 -161c0 -104 -102 -178 -275 -178c-160 0 -250 78 -250 174c0 49 21 92 65 125c-31 22 -50 54 -50 102c0 87 91 169 256 169c174 0 230 -91 234 -190c-131 0 -232 -11 -307 -32c20 -3 43 -6 70 -9zM160 398
c0 -29 20 -45 61 -55c60 18 136 30 228 35c-5 45 -38 97 -148 97c-88 0 -141 -34 -141 -77zM264 55c147 0 206 50 206 95c0 53 -39 72 -180 89c-62 8 -124 17 -168 42c-32 -27 -47 -60 -47 -96c0 -86 93 -130 189 -130z" />
    <glyph glyph-name="glyph114" unicode="&#x15b;" horiz-adv-x="610" 
d="M316 740h170l-220 -148h-10zM313 329c188 -20 257 -60 257 -161c0 -104 -102 -178 -275 -178c-160 0 -250 78 -250 174c0 49 21 92 65 125c-31 22 -50 54 -50 102c0 87 91 169 256 169c174 0 230 -91 234 -190c-131 0 -232 -11 -307 -32c20 -3 43 -6 70 -9zM160 398
c0 -29 20 -45 61 -55c60 18 136 30 228 35c-5 45 -38 97 -148 97c-88 0 -141 -34 -141 -77zM264 55c147 0 206 50 206 95c0 53 -39 72 -180 89c-62 8 -124 17 -168 42c-32 -27 -47 -60 -47 -96c0 -86 93 -130 189 -130z" />
    <glyph glyph-name="section" unicode="&#xa7;" horiz-adv-x="615" 
d="M495 196c51 -25 80 -67 80 -135c0 -115 -108 -171 -259 -171c-191 0 -267 91 -271 190h100c3 -47 53 -105 173 -105c103 0 157 31 157 79c0 50 -31 75 -121 81l-77 5c-132 9 -212 47 -212 152c0 52 29 89 87 113c-53 23 -82 62 -82 127c0 86 81 168 251 168
c174 0 230 -91 234 -190h-100c-3 47 -33 105 -149 105c-93 0 -136 -34 -136 -77c0 -50 33 -62 123 -68l73 -5c129 -9 209 -51 209 -154c0 -55 -30 -91 -80 -115zM165 298c0 -50 38 -62 128 -68l59 -4c81 5 123 30 123 72c0 50 -31 71 -121 77l-68 4
c-84 -5 -121 -41 -121 -81z" />
    <glyph glyph-name="copyright" unicode="&#xa9;" horiz-adv-x="800" 
d="M400 710c209 0 360 -161 360 -360s-151 -360 -360 -360s-360 161 -360 360s151 360 360 360zM400 0c203 0 350 157 350 350s-147 350 -350 350s-350 -157 -350 -350s147 -350 350 -350zM217 133v435h354v-76h-271v-283h271v-76h-354z" />
    <glyph glyph-name="guillemotleft" unicode="&#xab;" horiz-adv-x="580" 
d="M240 550h110l-228 -275l228 -275h-110l-230 275zM460 550h110l-228 -275l228 -275h-110l-230 275z" />
    <glyph glyph-name="registered" unicode="&#xae;" horiz-adv-x="800" 
d="M400 -10c209 0 360 161 360 360s-151 360 -360 360s-360 -161 -360 -360s151 -360 360 -360zM400 0c-203 0 -350 157 -350 350s147 350 350 350s350 -157 350 -350s-147 -350 -350 -350zM513 324v-115h99v-76h-181v191h-146v-191h-83v435h404v-244h-93zM524 492h-239v-92
h239v92z" />
    <glyph glyph-name="glyph119" unicode="&#x104;" horiz-adv-x="818" 
d="M798 0h-42c-83 0 -125 -33 -125 -65c0 -31 27 -53 108 -53v-93c-109 0 -155 50 -155 105s45 91 103 107l-96 219h-370l-96 -220h-105l304 700h167zM390 610l-130 -300h292l-132 300h-30z" />
    <glyph glyph-name="glyph120" unicode="&#x105;" horiz-adv-x="695" 
d="M514 -8c-29 -17 -45 -37 -45 -57c0 -31 27 -53 108 -53v-93c-109 0 -155 50 -155 105c0 46 32 79 74 103c-31 12 -54 41 -54 93v196h-50c0 -145 -48 -296 -205 -296c-86 0 -147 51 -147 127c0 113 123 158 262 173c-141 7 -220 37 -220 119c0 93 85 151 221 151
c146 0 239 -71 239 -230v-210c0 -33 14 -45 33 -45c28 0 82 25 82 202c0 95 -16 181 -37 273h10c20 -92 37 -174 37 -284c0 -211 -60 -276 -133 -276c-7 0 -14 1 -20 2zM382 296h60v24c0 75 -30 155 -172 155c-84 0 -143 -29 -143 -85c0 -69 75 -94 255 -94zM222 75
c108 0 160 84 160 211c-169 0 -247 -50 -247 -131c0 -54 35 -80 87 -80z" />
    <glyph glyph-name="glyph121" unicode="&#x107;" horiz-adv-x="665" 
d="M284 592l60 148h170l-220 -148h-10zM610 235h10c-10 -113 -109 -245 -278 -245s-297 131 -297 285s128 285 297 285c174 0 273 -121 278 -230h-100c-5 68 -61 140 -180 140c-114 0 -190 -82 -190 -195c0 -110 85 -195 215 -195c135 0 225 66 245 155z" />
    <glyph glyph-name="glyph123" unicode="&#x106;" horiz-adv-x="670" 
d="M396 890h170l-220 -148h-10zM640 700v-90h-470v-520h470v-90h-570v700h570z" />
  </font>
</defs>
</svg>
